<svg xmlns="http://www.w3.org/2000/svg" xmlns:xlink="http://www.w3.org/1999/xlink" viewBox="0,0,256,256" width="50px" height="50px" fill-rule="nonzero"><g transform="translate(32,32) scale(0.75,0.75)"><g fill="#b0b1b1" fill-rule="nonzero" stroke="none" stroke-width="1" stroke-linecap="butt" stroke-linejoin="miter" stroke-miterlimit="10" stroke-dasharray="" stroke-dashoffset="0" font-family="none" font-weight="none" font-size="none" text-anchor="none" style="mix-blend-mode: normal"><g transform="translate(0,25.6) scale(5.12,5.12)"><path d="M24.5,2c-8.69922,0 -10.5,4.49219 -10.5,7.09375v4.90625h10v1h-14.90625c-3.30078,0 -7.09375,2.60156 -7.09375,10c0,7.39844 3.79297,10 7.09375,10h5.90625v-6c0,-2.19922 1.80078,-4 4,-4h12c1.69922,0 3,-1.30078 3,-3v-12.90625c0,-3.5 -3.30078,-7.09375 -9.5,-7.09375zM20,7c1.10156,0 2,0.89844 2,2c0,1.10156 -0.89844,2 -2,2c-1.10156,0 -2,-0.89844 -2,-2c0,-1.10156 0.89844,-2 2,-2zM35,15v7c0,2.19922 -1.80078,4 -4,4h-12c-1.69922,0 -3,1.30078 -3,3v11.90625c0,3.5 3.30078,7.09375 9.5,7.09375c8.69922,0 10.5,-4.49219 10.5,-7.09375v-4.90625h-10v-1h14.90625c3.30078,0 7.09375,-2.60156 7.09375,-10c0,-7.39844 -3.79297,-10 -7.09375,-10zM30,39c1.10156,0 2,0.89844 2,2c0,1.10156 -0.89844,2 -2,2c-1.10156,0 -2,-0.89844 -2,-2c0,-1.10156 0.89844,-2 2,-2z"></path></g></g><g fill="#b0b1b1" fill-rule="nonzero" stroke="none" stroke-width="1" stroke-linecap="butt" stroke-linejoin="miter" stroke-miterlimit="10" stroke-dasharray="" stroke-dashoffset="0" font-family="none" font-weight="none" font-size="none" text-anchor="none" style="mix-blend-mode: normal"><g><path d="M51.615,8.936h-5.92v11.54h-6.75v-32.76h12.79c2.45333,0 4.61667,0.45 6.49,1.35c1.86667,0.9 3.3,2.18 4.3,3.84c1.00667,1.65333 1.51,3.53667 1.51,5.65v0c0,3.21333 -1.09667,5.74667 -3.29,7.6c-2.2,1.85333 -5.24333,2.78 -9.13,2.78zM45.695,-6.814v10.28h6.04c1.78,0 3.14,-0.42 4.08,-1.26c0.94,-0.84 1.41,-2.04 1.41,-3.6v0c0,-1.60667 -0.47333,-2.90333 -1.42,-3.89c-0.94667,-0.99333 -2.25333,-1.50333 -3.92,-1.53v0zM73.195,-12.284l6.77,14.76l6.82,-14.76h7.38l-10.76,20.88v11.88h-6.86v-11.88l-10.75,-20.88zM122.195,-12.284v5.47h-10.03v27.29h-6.75v-27.29h-9.9v-5.47zM152.715,-12.284v32.76h-6.75v-14.04h-13.17v14.04h-6.75v-32.76h6.75v13.27h13.17v-13.27zM185.515,3.376v1.46c0,3.22667 -0.57,6.05333 -1.71,8.48c-1.14,2.43333 -2.77,4.31 -4.89,5.63c-2.12667,1.32 -4.56,1.98 -7.3,1.98v0c-2.72,0 -5.14333,-0.65333 -7.27,-1.96c-2.13333,-1.30667 -3.78333,-3.17 -4.95,-5.59c-1.17333,-2.42 -1.76667,-5.20667 -1.78,-8.36v0v-1.62c0,-3.22667 0.58,-6.06333 1.74,-8.51c1.16667,-2.45333 2.81,-4.33667 4.93,-5.65c2.12,-1.31333 4.54667,-1.97 7.28,-1.97c2.72667,0 5.15333,0.65667 7.28,1.97c2.12,1.31333 3.76333,3.19667 4.93,5.65c1.16,2.44667 1.74,5.27667 1.74,8.49zM178.675,4.946v-1.59c0,-3.44 -0.61333,-6.05 -1.84,-7.83c-1.23333,-1.78667 -2.99,-2.68 -5.27,-2.68v0c-2.26667,0 -4.01333,0.88 -5.24,2.64c-1.23333,1.76667 -1.85667,4.35 -1.87,7.75v0v1.6c0,3.34667 0.61667,5.94333 1.85,7.79c1.22667,1.84 2.99667,2.76 5.31,2.76v0c2.26,0 4,-0.88667 5.22,-2.66c1.21333,-1.78 1.82667,-4.37333 1.84,-7.78zM217.055,-12.284v32.76h-6.75l-13.13,-21.56v21.56h-6.75v-32.76h6.75l13.16,21.6v-21.6z"></path></g></g></g></svg>