<svg xmlns="http://www.w3.org/2000/svg" xmlns:xlink="http://www.w3.org/1999/xlink" viewBox="0,0,256,256" width="50px" height="50px" fill-rule="evenodd"><g fill="#b0b1b1" fill-rule="evenodd" stroke="none" stroke-width="1" stroke-linecap="butt" stroke-linejoin="miter" stroke-miterlimit="10" stroke-dasharray="" stroke-dashoffset="0" font-family="none" font-weight="none" font-size="none" text-anchor="none" style="mix-blend-mode: normal"><g transform="translate(0,25.6) scale(5.12,5.12)"><path d="M42,6l-3,34l-14,4l-14,-4l-3,-34zM16.80078,28h4l0.09766,2.5l4.10156,1.39844l4.10156,-1.39844l0.29688,-4.5h-8.79687l-0.20312,-4h9.20313l0.29688,-4h-13.79687l-0.30078,-4h18.30078l-0.5,8l-0.70312,11.5l-7.89844,2.60156l-7.89844,-2.60156z"></path></g></g><g fill="#b0b1b1" fill-rule="nonzero" stroke="none" stroke-width="1" stroke-linecap="butt" stroke-linejoin="miter" stroke-miterlimit="10" stroke-dasharray="" stroke-dashoffset="0" font-family="none" font-weight="none" font-size="none" text-anchor="none" style="mix-blend-mode: normal"><g><path d="M107.369,31.07h6.75c-0.25333,3.52 -1.55333,6.29333 -3.9,8.32c-2.34667,2.02667 -5.44,3.04 -9.28,3.04v0c-4.2,0 -7.50333,-1.41333 -9.91,-4.24c-2.41333,-2.82667 -3.62,-6.71 -3.62,-11.65v0v-2c0,-3.14667 0.55667,-5.92 1.67,-8.32c1.10667,-2.4 2.69333,-4.24333 4.76,-5.53c2.06,-1.28 4.45667,-1.92 7.19,-1.92v0c3.78,0 6.82333,1.01333 9.13,3.04c2.31333,2.02667 3.65,4.86667 4.01,8.52v0h-6.75c-0.16667,-2.11333 -0.75667,-3.64667 -1.77,-4.6c-1.01333,-0.95333 -2.55333,-1.43 -4.62,-1.43v0c-2.25333,0 -3.93667,0.80667 -5.05,2.42c-1.12,1.61333 -1.69333,4.11667 -1.72,7.51v0v2.47c0,3.54 0.53333,6.12667 1.6,7.76c1.07333,1.64 2.76667,2.46 5.08,2.46v0c2.08667,0 3.64333,-0.47667 4.67,-1.43c1.02667,-0.95333 1.61333,-2.42667 1.76,-4.42zM135.539,33.38v0c0,-1.27333 -0.45,-2.25 -1.35,-2.93c-0.9,-0.68667 -2.52,-1.40667 -4.86,-2.16c-2.34,-0.76 -4.19,-1.50667 -5.55,-2.24v0c-3.72667,-2.01333 -5.59,-4.72 -5.59,-8.12v0c0,-1.77333 0.5,-3.35333 1.5,-4.74c1,-1.38667 2.43333,-2.47 4.3,-3.25c1.86667,-0.78 3.96333,-1.17 6.29,-1.17v0c2.34,0 4.42333,0.42333 6.25,1.27c1.83333,0.84667 3.25667,2.04333 4.27,3.59c1.00667,1.54667 1.51,3.3 1.51,5.26v0h-6.75c0,-1.49333 -0.47,-2.65667 -1.41,-3.49c-0.94667,-0.83333 -2.27333,-1.25 -3.98,-1.25v0c-1.65333,0 -2.93667,0.34667 -3.85,1.04c-0.92,0.7 -1.38,1.62 -1.38,2.76v0c0,1.06667 0.53667,1.96 1.61,2.68c1.07333,0.72 2.65333,1.39333 4.74,2.02v0c3.84,1.15333 6.63667,2.58667 8.39,4.3c1.75333,1.70667 2.63,3.83667 2.63,6.39v0c0,2.83333 -1.07,5.05667 -3.21,6.67c-2.14667,1.61333 -5.03667,2.42 -8.67,2.42v0c-2.52,0 -4.81333,-0.46 -6.88,-1.38c-2.07333,-0.92667 -3.65333,-2.19333 -4.74,-3.8c-1.08667,-1.6 -1.63,-3.46 -1.63,-5.58v0h6.77c0,3.62 2.16,5.43 6.48,5.43v0c1.60667,0 2.86,-0.32667 3.76,-0.98c0.9,-0.65333 1.35,-1.56667 1.35,-2.74zM163.869,33.38v0c0,-1.27333 -0.45,-2.25 -1.35,-2.93c-0.9,-0.68667 -2.52,-1.40667 -4.86,-2.16c-2.34,-0.76 -4.19333,-1.50667 -5.56,-2.24v0c-3.72,-2.01333 -5.58,-4.72 -5.58,-8.12v0c0,-1.77333 0.5,-3.35333 1.5,-4.74c0.99333,-1.38667 2.42667,-2.47 4.3,-3.25c1.86667,-0.78 3.96333,-1.17 6.29,-1.17v0c2.33333,0 4.41667,0.42333 6.25,1.27c1.83333,0.84667 3.25333,2.04333 4.26,3.59c1.01333,1.54667 1.52,3.3 1.52,5.26v0h-6.75c0,-1.49333 -0.47,-2.65667 -1.41,-3.49c-0.94667,-0.83333 -2.27667,-1.25 -3.99,-1.25v0c-1.64667,0 -2.93,0.34667 -3.85,1.04c-0.91333,0.7 -1.37,1.62 -1.37,2.76v0c0,1.06667 0.53667,1.96 1.61,2.68c1.07333,0.72 2.65333,1.39333 4.74,2.02v0c3.84,1.15333 6.63667,2.58667 8.39,4.3c1.75333,1.70667 2.63,3.83667 2.63,6.39v0c0,2.83333 -1.07333,5.05667 -3.22,6.67c-2.14,1.61333 -5.02667,2.42 -8.66,2.42v0c-2.52,0 -4.81333,-0.46 -6.88,-1.38c-2.07333,-0.92667 -3.65333,-2.19333 -4.74,-3.8c-1.08667,-1.6 -1.63,-3.46 -1.63,-5.58v0h6.77c0,3.62 2.16,5.43 6.48,5.43v0c1.60667,0 2.86,-0.32667 3.76,-0.98c0.9,-0.65333 1.35,-1.56667 1.35,-2.74z"></path></g></g></svg>