<svg xmlns="http://www.w3.org/2000/svg" xmlns:xlink="http://www.w3.org/1999/xlink" viewBox="0,0,256,256" width="50px" height="50px" fill-rule="nonzero"><g transform="translate(32,32) scale(0.75,0.75)"><g fill="#b0b1b1" fill-rule="nonzero" stroke="none" stroke-width="1" stroke-linecap="butt" stroke-linejoin="miter" stroke-miterlimit="10" stroke-dasharray="" stroke-dashoffset="0" font-family="none" font-weight="none" font-size="none" text-anchor="none" style="mix-blend-mode: normal"><g transform="translate(0,25.6) scale(5.12,5.12)"><path d="M45.27344,2.32422c-0.1875,-0.20703 -0.45703,-0.32422 -0.73828,-0.32422h-39.07031c-0.28125,0 -0.55078,0.11719 -0.73828,0.32422c-0.19141,0.20703 -0.28516,0.48438 -0.25781,0.76563l3.51953,39.42578c0.03516,0.41406 0.32422,0.75781 0.72266,0.875l16.01172,4.57031c0.08594,0.02734 0.17969,0.03906 0.27344,0.03906c0.09375,0 0.18359,-0.01172 0.27344,-0.03906l16.02344,-4.57031c0.39844,-0.11719 0.68359,-0.46094 0.72266,-0.875l3.51563,-39.42578c0.02734,-0.28125 -0.06641,-0.55859 -0.25781,-0.76562zM36.84766,15.91797h-18.8125l0.44922,5.08984h17.91016l-1.34375,15.04297l-10.05859,3.03906l-0.09766,-0.03125l-9.94141,-3.01172l-0.54297,-6.12891h4.87109l0.21094,2.37891l5.55859,1.16406l5.45703,-1.16406l0.58203,-6.4375h-17.04297l-1.32422,-14.80469h24.55859z"></path></g></g><g fill="#b0b1b1" fill-rule="nonzero" stroke="none" stroke-width="1" stroke-linecap="butt" stroke-linejoin="miter" stroke-miterlimit="10" stroke-dasharray="" stroke-dashoffset="0" font-family="none" font-weight="none" font-size="none" text-anchor="none" style="mix-blend-mode: normal"><g><path d="M96.812,-10.236v32.76h-6.75v-14.04h-13.17v14.04h-6.75v-32.76h6.75v13.27h13.17v-13.27zM126.712,-10.236v5.47h-10.04v27.29h-6.75v-27.29h-9.9v-5.47zM130.562,-10.236h8.82l8.41,23.76l8.37,-23.76h8.87v32.76h-6.78v-8.95l0.68,-15.46l-8.84,24.41h-4.64l-8.82,-24.39l0.68,15.44v8.95h-6.75zM177.672,-10.236v27.34h14.33v5.42h-21.08v-32.76z"></path></g></g></g></svg>